<svg xmlns="http://www.w3.org/2000/svg" viewBox="0 0 200 320" role="img" aria-label="Equipment mannequin">
  <defs>
    <linearGradient id="silhouette" x1="0%" y1="0%" x2="0%" y2="100%">
      <stop offset="0%" style="stop-color:#3d3d3d"/>
      <stop offset="100%" style="stop-color:#2a2a2a"/>
    </linearGradient>
  </defs>
  <ellipse cx="100" cy="28" rx="22" ry="26" fill="url(#silhouette)" opacity="0.85"/>
  <rect x="88" y="52" width="24" height="12" rx="4" fill="url(#silhouette)" opacity="0.7"/>
  <path d="M62 64 Q100 58 138 64 L148 110 Q100 98 52 110 Z" fill="url(#silhouette)" opacity="0.8"/>
  <rect x="78" y="108" width="44" height="52" rx="8" fill="url(#silhouette)" opacity="0.85"/>
  <rect x="48" y="68" width="18" height="58" rx="6" fill="url(#silhouette)" opacity="0.75"/>
  <rect x="134" y="68" width="18" height="58" rx="6" fill="url(#silhouette)" opacity="0.75"/>
  <rect x="82" y="158" width="36" height="18" rx="4" fill="url(#silhouette)" opacity="0.7"/>
  <rect x="86" y="176" width="28" height="62" rx="6" fill="url(#silhouette)" opacity="0.8"/>
  <rect x="78" y="236" width="18" height="58" rx="5" fill="url(#silhouette)" opacity="0.75"/>
  <rect x="104" y="236" width="18" height="58" rx="5" fill="url(#silhouette)" opacity="0.75"/>
  <ellipse cx="87" cy="300" rx="14" ry="8" fill="url(#silhouette)" opacity="0.7"/>
  <ellipse cx="113" cy="300" rx="14" ry="8" fill="url(#silhouette)" opacity="0.7"/>
</svg>
